<?xml version="1.0" encoding="iso-8859-1"?>
<!-- Generator: Adobe Illustrator 16.0.0, SVG Export Plug-In . SVG Version: 6.00 Build 0)  -->
<!DOCTYPE svg PUBLIC "-//W3C//DTD SVG 1.1//EN" "http://www.w3.org/Graphics/SVG/1.1/DTD/svg11.dtd">
<svg xmlns="http://www.w3.org/2000/svg" xmlns:xlink="http://www.w3.org/1999/xlink" version="1.1" id="Capa_1" x="0px" y="0px" width="512px" height="512px" viewBox="0 0 168.523 168.523" style="enable-background:new 0 0 168.523 168.523;" xml:space="preserve">
<g>
	<path d="M151.896,51.166c-9.187,0-16.654,7.467-16.654,16.648c0,6.387,3.66,11.865,8.938,14.666l-24.521,17.734L87.603,53.989   c-0.312-0.453-0.754-0.751-1.197-1.015c8.211-1.016,14.629-7.966,14.629-16.448c0-9.181-7.468-16.648-16.654-16.648   c-9.175,0-16.643,7.468-16.643,16.648c0,8.422,6.307,15.335,14.428,16.427c-0.464,0.269-0.907,0.567-1.226,1.021l-32.055,46.229   L24.363,82.469c5.287-2.79,8.933-8.279,8.933-14.666c0-9.181-7.47-16.648-16.643-16.648C7.467,51.155,0,58.622,0,67.803   c0,7.813,5.432,14.344,12.712,16.126v46.575c0,0.2,0.087,0.358,0.113,0.559c-0.056,0.306-0.113,0.591-0.113,0.907   c0,16.205,64.233,16.675,71.55,16.675c7.316,0,71.547-0.47,71.547-16.675c0-0.316-0.073-0.602-0.11-0.907   c0.031-0.189,0.11-0.358,0.11-0.559V83.93c7.283-1.782,12.715-8.313,12.715-16.126C168.539,58.633,161.077,51.166,151.896,51.166z    M147.73,89.909v33.477c-8.859-3.935-23.525-5.959-36.604-6.998L147.73,89.909z M84.283,140.556c-28.427,0-47.451-3.08-56.872-5.98   c-2.961-0.917-4.996-1.813-6.038-2.589c2.196-1.63,8.62-3.771,19.164-5.511c7.15-1.182,16.234-2.157,27.153-2.668   c4.168-0.195,8.611-0.333,13.326-0.359c1.097-0.01,2.149-0.031,3.268-0.031c1.117,0,2.17,0.021,3.267,0.031   c4.714,0.043,9.154,0.164,13.331,0.359c10.916,0.511,20.008,1.486,27.147,2.668c10.547,1.74,16.97,3.887,19.164,5.511   c-1.044,0.775-3.08,1.672-6.033,2.589C131.741,137.476,112.72,140.556,84.283,140.556z M75.843,36.537   c0-4.715,3.839-8.548,8.554-8.548c4.714,0,8.543,3.833,8.543,8.548c0,4.714-3.829,8.554-8.543,8.554   C79.682,45.091,75.843,41.251,75.843,36.537z M84.283,63.413l28.811,41.552l-14.739,10.669c-6.95-0.296-12.258-0.327-14.062-0.327   c-1.803,0-7.111,0.031-14.062,0.327L55.49,104.965L84.283,63.413z M57.438,116.388c-13.078,1.028-27.749,3.043-36.605,6.998V89.909   L57.438,116.388z M8.121,67.813c0-4.714,3.839-8.548,8.554-8.548c4.714,0,8.543,3.834,8.543,8.548c0,4.715-3.829,8.549-8.543,8.549   C11.96,76.362,8.121,72.528,8.121,67.813z M151.896,76.362c-4.715,0-8.554-3.834-8.554-8.549c0-4.714,3.839-8.548,8.554-8.548   c4.714,0,8.553,3.834,8.553,8.548C160.449,72.528,156.61,76.362,151.896,76.362z" fill="#FFFFFF"/>
</g>
<g>
</g>
<g>
</g>
<g>
</g>
<g>
</g>
<g>
</g>
<g>
</g>
<g>
</g>
<g>
</g>
<g>
</g>
<g>
</g>
<g>
</g>
<g>
</g>
<g>
</g>
<g>
</g>
<g>
</g>
</svg>
